<svg width="24" height="24" viewBox="0 0 24 24" fill="none" xmlns="http://www.w3.org/2000/svg">
<path d="M12.5427 15.9299L20.5077 7.57045C20.6407 7.43096 20.7148 7.24565 20.7148 7.05295C20.7148 6.86024 20.6407 6.67493 20.5077 6.53545L20.4987 6.52645C20.4342 6.45859 20.3567 6.40456 20.2707 6.36764C20.1847 6.33072 20.092 6.31168 19.9985 6.31168C19.9049 6.31168 19.8123 6.33072 19.7263 6.36764C19.6403 6.40456 19.5627 6.45859 19.4982 6.52645L11.9982 14.3984L4.5012 6.52645C4.43674 6.45859 4.35915 6.40456 4.27315 6.36764C4.18715 6.33072 4.09454 6.31168 4.00095 6.31168C3.90736 6.31168 3.81475 6.33072 3.72875 6.36764C3.64275 6.40456 3.56516 6.45859 3.5007 6.52645L3.4917 6.53545C3.35873 6.67493 3.28456 6.86024 3.28456 7.05295C3.28456 7.24565 3.35873 7.43096 3.4917 7.57045L11.4567 15.9299C11.5267 16.0035 11.611 16.062 11.7043 16.102C11.7977 16.142 11.8982 16.1626 11.9997 16.1626C12.1012 16.1626 12.2017 16.142 12.2951 16.102C12.3884 16.062 12.4727 16.0035 12.5427 15.9299Z" fill="white"/>
</svg>
