<svg width="177" height="24" viewBox="0 0 177 24" fill="none" xmlns="http://www.w3.org/2000/svg">
<path fill-rule="evenodd" clip-rule="evenodd" d="M19.092 6.5168C19.0745 6.63392 19.0541 6.75361 19.0314 6.8766C18.2483 11.0326 15.5689 12.4683 12.147 12.4683H10.4047C9.98616 12.4683 9.63344 12.7823 9.56835 13.209L8.42365 20.7139C8.38126 20.9941 8.59017 21.2465 8.86362 21.2465H11.9539C12.3197 21.2465 12.6306 20.9718 12.6882 20.5988L12.7186 20.4365L13.3004 16.6202L13.3378 16.4109C13.3947 16.0366 13.7063 15.7617 14.0722 15.7617H14.5343C17.5283 15.7617 19.8721 14.5054 20.5572 10.8696C20.8432 9.35086 20.6952 8.08266 19.9379 7.19076C19.7088 6.92188 19.4245 6.69863 19.092 6.5168" fill="#ffffff"/>
<path fill-rule="evenodd" clip-rule="evenodd" d="M18.271 6.17919C18.1513 6.14308 18.0278 6.11046 17.9012 6.08095C17.7739 6.05217 17.6436 6.02669 17.5093 6.00433C17.0395 5.92588 16.5247 5.88867 15.9734 5.88867H11.3188C11.2041 5.88867 11.0952 5.91543 10.9979 5.96382C10.7831 6.0705 10.6237 6.28055 10.585 6.53771L9.59478 13.02L9.56641 13.209C9.63149 12.7823 9.98421 12.4683 10.4027 12.4683H12.1451C15.5669 12.4683 18.2463 11.0318 19.0294 6.87662C19.0528 6.75363 19.0725 6.63394 19.0901 6.51681C18.892 6.40812 18.6774 6.31519 18.4464 6.23601C18.3893 6.2164 18.3304 6.19752 18.271 6.17919" fill="#ACACAC"/>
<path fill-rule="evenodd" clip-rule="evenodd" d="M10.5867 6.53796C10.6253 6.2808 10.7848 6.07075 10.9995 5.96481C11.0976 5.91624 11.2058 5.88948 11.3205 5.88948H15.975C16.5264 5.88948 17.0412 5.92687 17.511 6.00532C17.6452 6.02749 17.7755 6.05316 17.9029 6.08193C18.0295 6.11126 18.1529 6.14407 18.2726 6.17999C18.332 6.19832 18.3909 6.21739 18.4485 6.23626C18.6796 6.31545 18.8944 6.40911 19.0924 6.51707C19.3255 4.98126 19.0905 3.93558 18.2872 2.9887C17.4014 1.94613 15.8028 1.5 13.7573 1.5H7.81862C7.40082 1.5 7.04437 1.81398 6.97982 2.24142L4.50633 18.4468C4.45756 18.7674 4.69679 19.0566 5.00961 19.0566H8.67587L10.5867 6.53796" fill="#ffffff"/>
<path fill-rule="evenodd" clip-rule="evenodd" d="M71.8406 13.4222H73.0985H73.0996C73.2312 13.4248 73.3405 13.3161 73.3454 13.1779V9.5126C73.3454 9.05224 73.3689 8.6365 73.5454 8.22077C73.6665 7.90452 73.952 7.6916 74.276 7.67585C75.0806 7.67585 75.0729 8.60275 75.0668 9.33093C75.0663 9.39234 75.0658 9.45234 75.0658 9.51025V13.2084C75.0813 13.327 75.1754 13.417 75.2892 13.4222H76.5583C76.6786 13.4248 76.7823 13.3334 76.8007 13.2084V8.92306C76.8007 8.26422 76.8007 7.34702 76.4711 6.80211C76.1148 6.21491 75.5629 6 74.9976 6C74.1263 6 73.6314 6.44392 73.2784 7.37521H73.2538V6.33353C73.2283 6.22463 73.137 6.14687 73.0304 6.14328H71.8596C71.7359 6.14008 71.6305 6.23708 71.6172 6.36641V13.1779C71.6188 13.3085 71.7165 13.4153 71.8406 13.4222ZM70.655 9.84953C70.655 7.7004 69.6418 6.00928 67.7683 6.00928C65.9429 6.00928 64.9297 7.67221 64.9297 9.77789C64.9297 11.8836 65.9306 13.5747 67.7683 13.5747C69.5379 13.5747 70.655 11.927 70.655 9.84953ZM66.791 9.56264C66.791 8.73117 66.8502 7.39941 67.7808 7.39941C68.1807 7.39941 68.4634 7.58849 68.6053 8.05825C68.7706 8.60199 68.7941 9.29018 68.7941 9.86328C68.7941 10.737 68.7572 12.1698 67.7685 12.1698C66.7906 12.1698 66.7909 10.4327 66.791 9.5902L66.791 9.56264ZM43.1863 13.4366H44.4476H44.4487C44.512 13.4381 44.5733 13.4131 44.619 13.3671C44.6647 13.321 44.691 13.2577 44.6922 13.1911V9.58222L44.6922 9.52573C44.6917 8.74103 44.691 7.7032 45.5636 7.7032C46.3703 7.7032 46.3578 8.61507 46.3477 9.35143C46.3466 9.43086 46.3456 9.50824 46.3456 9.58222V13.1923C46.3477 13.3227 46.4452 13.4292 46.569 13.4366H47.8336C47.8967 13.4378 47.9577 13.4127 48.0032 13.3666C48.0486 13.3206 48.0748 13.2575 48.076 13.1911V9.58222L48.0759 9.49642C48.0751 9.11406 48.0741 8.59806 48.1944 8.27747C48.3171 7.94978 48.6137 7.73039 48.9485 7.71964C49.3138 7.71964 49.5964 7.84882 49.6903 8.30683C49.7382 8.52727 49.732 9.03829 49.7279 9.37715V9.37721V9.37727V9.37732V9.37738C49.7269 9.45726 49.726 9.52756 49.726 9.58222V13.1923C49.7276 13.3229 49.8254 13.4298 49.9495 13.4366H51.2107C51.274 13.4381 51.3353 13.4131 51.381 13.3671C51.4267 13.321 51.4531 13.2577 51.4542 13.1911V8.89403C51.4542 8.78926 51.456 8.68219 51.4577 8.57395C51.468 7.93233 51.479 7.24936 51.1359 6.75899C50.7199 6.20275 50.0509 5.92556 49.3858 6.03387C48.7206 6.14217 48.1627 6.61912 47.9263 7.28159C47.5722 6.42077 47.0661 6.0203 46.2886 6.0203C45.5111 6.0203 44.9335 6.42077 44.6274 7.28159H44.604V6.39258C44.5973 6.26587 44.5011 6.16469 44.3805 6.1577H43.2042C43.0743 6.15635 42.9671 6.2643 42.9629 6.4008V13.2123C42.9743 13.3348 43.0693 13.4302 43.1863 13.4366ZM40.9914 13.4873C40.9083 13.563 40.7889 13.5757 40.6931 13.519C40.3356 13.2064 40.2279 13.0374 40.0624 12.7778L40.0624 12.7778L40.0623 12.7777C40.0338 12.7331 40.0037 12.6858 39.9703 12.6347C39.2766 13.3769 38.7861 13.5989 37.8891 13.5989C36.8267 13.5989 36 12.9095 36 11.5308C36 10.4538 36.5586 9.72219 37.3406 9.36283C37.918 9.09645 38.6885 9.01377 39.3545 8.94229L39.3546 8.94229L39.3546 8.94228L39.3546 8.94228C39.4785 8.92899 39.5987 8.91609 39.7134 8.90247V8.73101C39.7134 8.69828 39.7136 8.66493 39.7139 8.63115V8.63115V8.63114V8.63114V8.63114V8.63114C39.7161 8.33878 39.7185 8.01329 39.5603 7.76801C39.4061 7.52373 39.1135 7.42391 38.852 7.42391C38.3706 7.42391 37.9416 7.68345 37.8366 8.22015C37.8233 8.34534 37.7316 8.44553 37.6131 8.46442L36.3999 8.32467C36.3394 8.31555 36.2851 8.28075 36.2496 8.22838C36.2141 8.176 36.2006 8.11063 36.2123 8.04751C36.4927 6.48792 37.8332 6.01699 39.0341 6.01699C39.6486 6.01699 40.4507 6.18845 40.9333 6.677C41.4998 7.2346 41.4963 7.96456 41.4925 8.76229V8.76239V8.76249V8.7626V8.7627V8.76281C41.4922 8.82849 41.4918 8.89464 41.4918 8.96119V11.0269C41.4918 11.5833 41.6882 11.86 41.895 12.1515C41.9196 12.1862 41.9443 12.221 41.9689 12.2565C42.0493 12.374 42.0672 12.5208 41.9689 12.6088C41.7108 12.8355 41.2528 13.2536 41.0014 13.4896L40.9914 13.4873ZM39.7186 10.2531L39.7186 10.3174C39.7191 10.8058 39.7194 11.2201 39.4829 11.6623C39.2818 12.0358 38.9634 12.266 38.6082 12.266C38.1244 12.266 37.8418 11.8784 37.8418 11.303C37.8418 10.1732 38.8059 9.96768 39.7186 9.96768V10.2531ZM58.4353 12.1473L58.4355 12.1476L58.4357 12.1478L58.4358 12.148C58.4602 12.1825 58.4848 12.2171 58.5092 12.2524C58.5941 12.3746 58.612 12.5178 58.5036 12.5989C58.2456 12.8255 57.7875 13.2448 57.5362 13.4797C57.4526 13.5544 57.3336 13.5665 57.2379 13.5102C56.8789 13.1962 56.7726 13.0297 56.6047 12.7668C56.5767 12.7229 56.5469 12.6763 56.514 12.6259C55.8214 13.3681 55.3276 13.5901 54.4339 13.5901C53.3715 13.5901 52.5448 12.9007 52.5448 11.5231C52.5448 10.445 53.1 9.71339 53.891 9.35403C54.4697 9.08663 55.2444 9.00434 55.9125 8.93338C56.0337 8.92051 56.1514 8.90801 56.2638 8.89484V8.7269C56.2638 8.69433 56.264 8.66115 56.2643 8.62753C56.2665 8.33506 56.2689 8.00945 56.1096 7.76508C55.9599 7.52081 55.6616 7.41981 55.4013 7.41981C54.9199 7.41981 54.4931 7.67935 54.387 8.21605C54.3733 8.34106 54.2818 8.44105 54.1636 8.46032L52.9403 8.32174C52.8793 8.31294 52.8245 8.27809 52.7888 8.22541C52.753 8.17273 52.7395 8.10688 52.7515 8.04341C53.033 6.48265 54.3736 6.01289 55.5745 6.01289C56.1878 6.01289 56.9899 6.18435 57.4736 6.6729C58.0413 7.22761 58.0373 7.95192 58.033 8.74557V8.74602V8.74648V8.74693V8.74739C58.0326 8.81678 58.0322 8.8867 58.0322 8.95708V11.024C58.0322 11.5792 58.2285 11.8558 58.4353 12.1473ZM55.1549 12.2595C55.5091 12.2595 55.8286 12.0293 56.0285 11.657C56.2659 11.2123 56.2657 10.7961 56.2654 10.3016L56.2654 10.2489V9.96235C55.3527 9.96235 54.3886 10.1667 54.3886 11.2976C54.3886 11.8719 54.6712 12.2595 55.1549 12.2595ZM59.5781 6.37717V7.34721C59.5774 7.41375 59.6027 7.47767 59.6481 7.52405C59.6935 7.57044 59.755 7.59523 59.8183 7.59266H61.99L59.4999 11.3507C59.3862 11.5523 59.3325 11.785 59.3457 12.0189V13.0113C59.3457 13.1546 59.4965 13.3178 59.6406 13.2368C61.014 12.4882 62.6472 12.4851 64.0232 13.2286C64.1807 13.3143 64.3293 13.1487 64.3293 13.0054V11.9626C64.325 11.8031 64.2397 11.6583 64.1058 11.5832C63.3808 11.1546 62.5374 11.0289 61.7397 11.0489L63.8891 7.82401C64.0891 7.53511 64.2008 7.35191 64.2008 7.21216V6.37717C64.2014 6.31083 64.1763 6.24711 64.1311 6.20076C64.086 6.15441 64.0248 6.12947 63.9617 6.13172H59.8138C59.7506 6.12799 59.689 6.15257 59.644 6.19935C59.5991 6.24614 59.5751 6.31075 59.5781 6.37717Z" fill="#ffffff"/>
<path fill-rule="evenodd" clip-rule="evenodd" d="M61.651 17.7675C61.9381 17.0171 62.5771 15.3354 62.2733 14.9278H62.2755C61.973 14.5194 60.2749 14.7338 59.5111 14.8302L59.5095 14.8304C59.2771 14.8597 59.2414 14.6472 59.4503 14.4933C60.8065 13.4916 63.0284 13.7781 63.2865 14.1163C63.5446 14.4546 63.2161 16.7963 61.9459 17.9143C61.7504 18.0858 61.5639 17.9942 61.651 17.7675ZM52.5254 18.9252C55.4791 18.9252 58.9187 17.9446 61.2882 16.1067V16.1102C61.6803 15.8001 61.344 15.3445 60.9441 15.523C58.3578 16.6698 55.5815 17.2685 52.7745 17.2846C48.8802 17.2846 45.1132 16.1618 42.0656 14.2981C41.7986 14.1349 41.5998 14.4226 41.8232 14.6328C44.7571 17.4156 48.5738 18.9464 52.5254 18.9252Z" fill="#ffffff"/>
<path d="M111.655 8.96066C111.655 11.2048 110.082 12.8068 107.883 12.8068H105.812C105.789 12.8068 105.766 12.8113 105.745 12.8201C105.724 12.8289 105.705 12.8417 105.689 12.858C105.672 12.8742 105.66 12.8934 105.651 12.9146C105.642 12.9357 105.638 12.9584 105.638 12.9813V15.9307C105.638 15.9769 105.62 16.0211 105.587 16.0538C105.555 16.0865 105.511 16.105 105.464 16.1052H104.015C103.981 16.105 103.947 16.0947 103.918 16.0755C103.89 16.0563 103.867 16.0291 103.854 15.9973C103.845 15.9765 103.841 15.9542 103.841 15.9316V5.28812C103.84 5.26525 103.845 5.24259 103.854 5.22143C103.862 5.20027 103.875 5.18103 103.891 5.16482C103.907 5.14861 103.926 5.13575 103.948 5.12697C103.969 5.11819 103.991 5.11368 104.014 5.11368H107.892C110.082 5.11115 111.655 6.71315 111.655 8.96066ZM109.847 8.96066C109.847 7.67047 108.968 6.72747 107.774 6.72747H105.812C105.789 6.72747 105.766 6.73199 105.745 6.74077C105.724 6.74954 105.705 6.76241 105.689 6.77862C105.672 6.79483 105.66 6.81406 105.651 6.83522C105.642 6.85638 105.638 6.87905 105.638 6.90191V11.0093C105.638 11.0553 105.656 11.0995 105.689 11.1321C105.721 11.1646 105.766 11.1829 105.812 11.1829H107.774C108.968 11.1913 109.847 10.2475 109.847 8.96066ZM112.085 14.0633C112.07 13.7191 112.141 13.3766 112.292 13.067C112.443 12.7573 112.669 12.4903 112.949 12.2902C113.515 11.8647 114.399 11.6447 115.697 11.5992L117.079 11.5503V11.1425C117.079 10.325 116.531 9.97951 115.651 9.97951C114.771 9.97951 114.214 10.2913 114.085 10.8012C114.075 10.837 114.053 10.8684 114.023 10.8903C113.993 10.9123 113.956 10.9236 113.919 10.9225H112.553C112.528 10.9232 112.503 10.9183 112.48 10.9083C112.457 10.8982 112.437 10.8832 112.42 10.8643C112.403 10.8454 112.391 10.823 112.384 10.7989C112.377 10.7747 112.376 10.7493 112.38 10.7245C112.582 9.51601 113.587 8.59746 115.714 8.59746C117.975 8.59746 118.792 9.65085 118.792 11.6616V15.9307C118.792 15.9773 118.773 16.0218 118.739 16.0545C118.706 16.0872 118.662 16.1054 118.615 16.1052H117.239C117.193 16.1051 117.149 16.0869 117.116 16.0546C117.1 16.0385 117.087 16.0193 117.078 15.9981C117.07 15.977 117.065 15.9544 117.065 15.9316V15.6122C117.066 15.5858 117.058 15.5599 117.044 15.5378C117.029 15.5158 117.008 15.4987 116.984 15.4887C116.959 15.4788 116.933 15.4765 116.907 15.4821C116.881 15.4878 116.857 15.5011 116.839 15.5203C116.426 15.9695 115.76 16.294 114.692 16.294C113.121 16.294 112.085 15.4765 112.085 14.0633ZM117.079 13.138V12.8068L115.289 12.9012C114.346 12.9492 113.797 13.3411 113.797 14.0009C113.797 14.5976 114.3 14.9279 115.179 14.9279C116.373 14.9279 117.079 14.2832 117.079 13.138ZM120.174 19.3311V18.094C120.174 18.0681 120.18 18.0425 120.191 18.0191C120.203 17.9957 120.219 17.9751 120.239 17.9587C120.259 17.9423 120.283 17.9305 120.308 17.9242C120.333 17.9179 120.359 17.9171 120.385 17.9221C120.595 17.9617 120.81 17.9819 121.025 17.9828C121.395 18.0007 121.759 17.8942 122.061 17.6803C122.363 17.4664 122.584 17.1575 122.69 16.803L122.779 16.5181C122.792 16.4799 122.792 16.4384 122.779 16.4001L119.911 9.03482C119.901 9.00812 119.897 8.9793 119.9 8.95084C119.903 8.92238 119.914 8.89513 119.93 8.87143C119.946 8.84772 119.967 8.82828 119.993 8.81476C120.018 8.80124 120.046 8.79405 120.075 8.79381H121.465C121.501 8.79417 121.535 8.80522 121.564 8.82551C121.593 8.8458 121.616 8.87439 121.629 8.90757L123.576 14.1021C123.588 14.1366 123.611 14.1664 123.641 14.1876C123.671 14.2087 123.706 14.2201 123.743 14.2201C123.78 14.2201 123.815 14.2087 123.845 14.1876C123.875 14.1664 123.898 14.1366 123.91 14.1021L125.601 8.9219C125.613 8.88649 125.635 8.85569 125.666 8.8339C125.696 8.81211 125.732 8.80044 125.77 8.80055H127.208C127.237 8.80072 127.265 8.80787 127.291 8.82137C127.316 8.83488 127.338 8.85434 127.354 8.8781C127.371 8.90186 127.381 8.92921 127.384 8.95782C127.388 8.98643 127.384 9.01545 127.374 9.04241L124.307 17.2218C123.6 19.1229 122.39 19.6092 121.056 19.6092C120.804 19.6159 120.551 19.5856 120.306 19.519C120.266 19.5083 120.23 19.4835 120.206 19.4492C120.182 19.4148 120.17 19.373 120.174 19.3311ZM94.526 4.50018C92.6991 4.48717 90.9366 5.17478 89.6012 6.42157C89.5441 6.47387 89.5085 6.54555 89.5013 6.62266C89.4942 6.69977 89.516 6.77678 89.5625 6.83871L90.3892 7.96795C90.416 8.00555 90.4507 8.03681 90.4908 8.05955C90.531 8.08229 90.5757 8.09595 90.6217 8.09956C90.6678 8.10318 90.714 8.09666 90.7573 8.08048C90.8005 8.06429 90.8397 8.03882 90.872 8.00587C91.3522 7.52581 91.9233 7.14627 92.5518 6.88944C93.1804 6.6326 93.8538 6.50363 94.5328 6.51005C97.3677 6.51005 98.8483 8.6438 98.8483 10.7506C98.8483 13.0411 97.2927 14.6524 95.0569 14.6844C93.3294 14.6844 92.0274 13.5391 92.0274 12.0265C92.0292 11.6443 92.1158 11.2673 92.2809 10.9227C92.446 10.578 92.6855 10.2743 92.9822 10.0334C93.0449 9.98105 93.0845 9.90613 93.0926 9.82481C93.1006 9.74348 93.0764 9.66225 93.0252 9.5986L92.1563 8.50139C92.13 8.4682 92.0974 8.44062 92.0603 8.42027C92.0232 8.39992 91.9824 8.38721 91.9403 8.38289C91.8982 8.37857 91.8556 8.38272 91.8151 8.39512C91.7747 8.40751 91.7371 8.42788 91.7046 8.45504C91.171 8.88494 90.7404 9.42883 90.4444 10.0468C90.1484 10.6648 89.9945 11.3412 89.9939 12.0265C89.9939 14.6304 92.2069 16.6732 95.0418 16.69H95.0797C98.4455 16.6462 100.879 14.1535 100.879 10.7464C100.879 7.72103 98.6511 4.50018 94.5269 4.50018H94.526Z" fill="#ffffff"/>
<path fill-rule="evenodd" clip-rule="evenodd" d="M156.627 16.2336V11.8317H158.899C159.83 11.8317 160.616 11.5197 161.256 10.9045L161.41 10.7485C162.58 9.47469 162.503 7.49033 161.256 6.31185C160.633 5.68795 159.779 5.35 158.899 5.36733H155.252V16.2336H156.627ZM156.627 10.4976V6.70215H158.933C159.429 6.70215 159.899 6.89279 160.249 7.2394C160.992 7.96728 161.009 9.18043 160.292 9.93431C159.941 10.3069 159.446 10.5149 158.933 10.4976H156.627ZM167.824 9.37936C167.235 8.83344 166.432 8.55615 165.416 8.55615C164.109 8.55615 163.127 9.04141 162.478 10.0033L163.69 10.7745C164.135 10.1159 164.741 9.78663 165.51 9.78663C165.997 9.78663 166.466 9.9686 166.834 10.2979C167.192 10.6098 167.397 11.0604 167.397 11.537V11.8576C166.868 11.563 166.202 11.407 165.382 11.407C164.425 11.407 163.656 11.6323 163.084 12.0916C162.512 12.5509 162.221 13.1574 162.221 13.9286C162.204 14.6305 162.503 15.2978 163.033 15.7484C163.571 16.2336 164.254 16.4762 165.057 16.4762C166.005 16.4762 166.757 16.0516 167.329 15.2024H167.389V16.2336H168.704V11.6497C168.704 10.6878 168.414 9.92527 167.824 9.37936ZM164.091 14.8642C163.81 14.6563 163.639 14.3183 163.639 13.9544C163.639 13.5471 163.827 13.2092 164.194 12.9405C164.57 12.6719 165.04 12.5333 165.595 12.5333C166.364 12.5246 166.962 12.6979 167.389 13.0445C167.389 13.6338 167.158 14.145 166.705 14.5783C166.295 14.9942 165.74 15.2282 165.159 15.2282C164.775 15.2368 164.399 15.1069 164.091 14.8642ZM171.658 19.5L176.253 8.79834H174.759L172.632 14.1362H172.606L170.428 8.79834H168.934L171.949 15.7566L170.24 19.5H171.658Z" fill="#ffffff"/>
<path d="M152.253 10.8779C152.253 10.4533 152.219 10.0287 152.151 9.61279H146.352V12.0131H149.674C149.537 12.7843 149.093 13.4775 148.444 13.9108V15.4705H150.426C151.587 14.3874 152.253 12.7843 152.253 10.8779Z" fill="#ffffff"/>
<path d="M146.351 16.979C148.008 16.979 149.409 16.4244 150.425 15.4713L148.444 13.9115C147.889 14.2928 147.18 14.5094 146.351 14.5094C144.745 14.5094 143.387 13.4089 142.901 11.9358H140.859V13.5476C141.901 15.6532 144.028 16.979 146.351 16.979Z" fill="#ffffff"/>
<path d="M142.901 11.9349C142.645 11.1637 142.645 10.3232 142.901 9.5433V7.94022H140.859C139.979 9.69927 139.979 11.7789 140.859 13.538L142.901 11.9349Z" fill="#ffffff"/>
<path d="M146.351 6.96999C147.231 6.95266 148.077 7.29061 148.709 7.90584L150.468 6.12079C149.349 5.06362 147.88 4.48305 146.351 4.50038C144.028 4.50038 141.901 5.83483 140.859 7.94051L142.901 9.55225C143.387 8.07048 144.745 6.96999 146.351 6.96999Z" fill="#ffffff"/>
</svg>
