<svg width="20" height="20" viewBox="0 0 20 20" fill="none" xmlns="http://www.w3.org/2000/svg">
<path fill-rule="evenodd" clip-rule="evenodd" d="M9.8537 1.27653C9.94803 1.24116 10.052 1.24116 10.1463 1.27653L16.813 3.77653C16.9756 3.83751 17.0833 3.99298 17.0833 4.16667V10C17.0833 12.686 15.2993 14.8751 13.6077 16.3552C12.7532 17.103 11.9006 17.6889 11.2625 18.0877C10.943 18.2874 10.6762 18.4408 10.4883 18.5449C10.3943 18.5969 10.3199 18.6366 10.2686 18.6636C10.2429 18.6771 10.2229 18.6874 10.209 18.6945L10.1929 18.7027L10.1884 18.705L10.1871 18.7056L10.1866 18.7059C10.1865 18.7059 10.1863 18.706 10 18.3333C9.81366 18.706 9.81353 18.7059 9.81337 18.7059L9.81292 18.7056L9.81157 18.705L9.80706 18.7027L9.79096 18.6945C9.77712 18.6874 9.75715 18.6771 9.73145 18.6636C9.68006 18.6366 9.60573 18.5969 9.51174 18.5449C9.32383 18.4408 9.05699 18.2874 8.7375 18.0877C8.09939 17.6889 7.24683 17.103 6.39229 16.3552C4.70073 14.8751 2.91667 12.686 2.91667 10V4.16667C2.91667 3.99298 3.02441 3.83751 3.18703 3.77653L9.8537 1.27653ZM10 18.3333L9.81366 18.706C9.93097 18.7647 10.069 18.7647 10.1863 18.706L10 18.3333ZM10 17.8622C9.9742 17.8482 9.94593 17.8327 9.91534 17.8158C9.73868 17.718 9.48468 17.572 9.17917 17.381C8.56728 16.9986 7.75318 16.4387 6.94104 15.7281C5.29927 14.2915 3.75 12.314 3.75 10V4.45542L10 2.11167L16.25 4.45542V10C16.25 12.314 14.7007 14.2915 13.059 15.7281C12.2468 16.4387 11.4327 16.9986 10.8208 17.381C10.5153 17.572 10.2613 17.718 10.0847 17.8158C10.0541 17.8327 10.0258 17.8482 10 17.8622Z" fill="#4DACE1"/>
<path d="M10.1904 9.07715C10.3864 7.56636 10.5781 6.08869 10.7697 4.61101C10.7399 4.60179 10.7106 4.59256 10.6807 4.58333C9.76478 6.40735 8.84887 8.23191 7.91667 10.0896H9.85925C9.5981 11.595 9.34239 13.0715 9.08613 14.5481C9.11816 14.5574 9.14965 14.5671 9.18168 14.5764C10.0916 12.7621 11.0021 10.9484 11.9408 9.07715H10.1899H10.1904Z" fill="#4DACE1"/>
</svg>
