<svg width="20" height="20" viewBox="0 0 20 20" fill="none" xmlns="http://www.w3.org/2000/svg">
<path fill-rule="evenodd" clip-rule="evenodd" d="M0.416687 2.49992C0.416687 2.2698 0.603235 2.08325 0.833354 2.08325H13.3334C13.5635 2.08325 13.75 2.2698 13.75 2.49992V13.3333C13.75 13.5634 13.5635 13.7499 13.3334 13.7499H0.833354C0.603235 13.7499 0.416687 13.5634 0.416687 13.3333V2.49992ZM1.25002 2.91659V12.9166H12.9167V2.91659H1.25002Z" fill="#4DACE1"/>
<path fill-rule="evenodd" clip-rule="evenodd" d="M12.9167 6.66667C12.9167 6.43655 13.1032 6.25 13.3334 6.25H16.6667C16.7772 6.25 16.8832 6.2939 16.9613 6.37204L19.4613 8.87204C19.5395 8.95018 19.5834 9.05616 19.5834 9.16667V13.3333C19.5834 13.5635 19.3968 13.75 19.1667 13.75H13.3334C13.1032 13.75 12.9167 13.5635 12.9167 13.3333V6.66667ZM13.75 7.08333V12.9167H18.75V9.33926L16.4941 7.08333H13.75Z" fill="#4DACE1"/>
<path fill-rule="evenodd" clip-rule="evenodd" d="M4.58331 13.7501C3.66284 13.7501 2.91665 14.4963 2.91665 15.4167C2.91665 16.3372 3.66284 17.0834 4.58331 17.0834C5.50379 17.0834 6.24998 16.3372 6.24998 15.4167C6.24998 14.4963 5.50379 13.7501 4.58331 13.7501ZM2.08331 15.4167C2.08331 14.036 3.2026 12.9167 4.58331 12.9167C5.96403 12.9167 7.08331 14.036 7.08331 15.4167C7.08331 16.7975 5.96403 17.9167 4.58331 17.9167C3.2026 17.9167 2.08331 16.7975 2.08331 15.4167Z" fill="#4DACE1"/>
<path fill-rule="evenodd" clip-rule="evenodd" d="M15.4167 13.7501C14.4962 13.7501 13.75 14.4963 13.75 15.4167C13.75 16.3372 14.4962 17.0834 15.4167 17.0834C16.3372 17.0834 17.0834 16.3372 17.0834 15.4167C17.0834 14.4963 16.3372 13.7501 15.4167 13.7501ZM12.9167 15.4167C12.9167 14.036 14.036 12.9167 15.4167 12.9167C16.7974 12.9167 17.9167 14.036 17.9167 15.4167C17.9167 16.7975 16.7974 17.9167 15.4167 17.9167C14.036 17.9167 12.9167 16.7975 12.9167 15.4167Z" fill="#4DACE1"/>
</svg>
